PathFileType	4	(X/Y/Z)	/Users/itak/Documents/Research/Walk-IL/dataset/trc/00567_00009.trc
DataRate	CameraRate	NumFrames	NumMarkers	Units	OrigDataRate	OrigDataStartFrame	OrigNumFrames
100.000000	100.000000	4	53	mm	100.000000	167	447
Frame#	Time	RPSI			LPSI			L3			STRN			T10			C7			CLAV			RBAK			LBAK			LSHO			LUPA			LAEL			LAOL			LWTS			LWPS			LFRA			LHPS			LHTS			RSHO			RUPA			RAEL			RAOL			RWTS			RWPS			RFRA			RIFD			RHTS			RHPS			RBHD			LFHD			RFHD			LBHD			LHIP			RHIP			RASI			LASI			LKNE			LTHI			LANK			LTIP			LTOE			LMT1			LMT5			LHEE			RKNE			RTHI			RANK			RTIP			RTOE			RMT1			RMT5			RHEE			LIFD			
		X1	Y1	Z1	X2	Y2	Z2	X3	Y3	Z3	X4	Y4	Z4	X5	Y5	Z5	X6	Y6	Z6	X7	Y7	Z7	X8	Y8	Z8	X9	Y9	Z9	X10	Y10	Z10	X11	Y11	Z11	X12	Y12	Z12	X13	Y13	Z13	X14	Y14	Z14	X15	Y15	Z15	X16	Y16	Z16	X17	Y17	Z17	X18	Y18	Z18	X19	Y19	Z19	X20	Y20	Z20	X21	Y21	Z21	X22	Y22	Z22	X23	Y23	Z23	X24	Y24	Z24	X25	Y25	Z25	X26	Y26	Z26	X27	Y27	Z27	X28	Y28	Z28	X29	Y29	Z29	X30	Y30	Z30	X31	Y31	Z31	X32	Y32	Z32	X33	Y33	Z33	X34	Y34	Z34	X35	Y35	Z35	X36	Y36	Z36	X37	Y37	Z37	X38	Y38	Z38	X39	Y39	Z39	X40	Y40	Z40	X41	Y41	Z41	X42	Y42	Z42	X43	Y43	Z43	X44	Y44	Z44	X45	Y45	Z45	X46	Y46	Z46	X47	Y47	Z47	X48	Y48	Z48	X49	Y49	Z49	X50	Y50	Z50	X51	Y51	Z51	X52	Y52	Z52	X53	Y53	Z53	

168	1.67	-248.9162750244141	985.5335693359375	21.06065940856934	-155.6645965576172	998.4461059570312	-72.65696716308594	-199.4463500976562	1089.745361328125	-23.92948150634766	-17.58574867248535	1278.50146484375	130.8665466308594	-201.0631256103516	1215.634399414062	-29.13821029663086	-165.6881713867188	1491.61865234375	8.936154365539551	-29.58329200744629	1389.274047851562	116.038330078125	-277.5466918945312	1366.814208984375	29.14570808410645	-132.6770324707031	1437.012817382812	-81.52578735351562	-3.887269258499146	1457.109497070312	-82.06424713134766	35.71075820922852	1329.379638671875	-149.2657623291016	61.06135940551758	1108.9755859375	-163.3632354736328	-39.58907699584961	1102.569580078125	-174.0754241943359	100.2704162597656	860.86767578125	-80.19591522216797	108.7666320800781	843.4212036132812	-165.5173187255859	81.7581787109375	1022.039916992188	-158.7434539794922	107.0769271850586	782.493408203125	-158.0020446777344	120.9080657958984	782.3349609375	-91.42436218261719	-225.1053161621094	1457.06396484375	164.4576110839844	-285.1618957519531	1394.324462890625	205.0506439208984	-327.3662414550781	1106.29150390625	236.6907806396484	-346.3865966796875	1090.7275390625	177.2899017333984	-233.3386535644531	871.683349609375	306.167236328125	-314.6894836425781	862.4249267578125	317.6168823242188	-331.070556640625	1051.838500976562	248.6384887695312	-255.0785980224609	698.9180908203125	306.0787048339844	-238.8431701660156	777.990966796875	332.5599975585938	-312.239501953125	786.6644287109375	325.7633972167969	-144.7428131103516	1671.06640625	107.4581832885742	59.82041549682617	1684.981689453125	141.4420471191406	-61.52736663818359	1679.851684570312	219.8415985107422	-1.64871871471405	1674.764038085938	23.40494346618652	37.53091049194336	941.5381469726562	-73.02114105224609	-244.6371154785156	911.0380859375	191.3120574951172	-144.9425048828125	951.6255493164062	216.2916870117188	48.45975494384766	964.96533203125	19.84210968017578	113.7055892944336	514.2744140625	49.57663726806641	98.57329559326172	675.9830322265625	-0.6529331803321838	99.90837860107422	26.35554504394531	-8.949692726135254	101.40185546875	260.6229248046875	0.9987285137176514	170.9298858642578	46.54168701171875	197.4542846679688	102.4076614379883	49.84576034545898	157.2302398681641	180.9329681396484	33.82359313964844	84.41825103759766	13.92321968078613	32.63443756103516	-31.88855934143066	-184.3012237548828	472.430419921875	199.5235595703125	-203.8985595703125	761.7191772460938	219.4889526367188	-465.1968078613281	195.7529449462891	-75.49763488769531	-242.7725067138672	356.1171875	132.6825103759766	-324.3515014648438	43.67441177368164	-23.3388671875	-339.06494140625	83.79742431640625	-82.93074035644531	-409.8565979003906	97.63717651367188	-8.179093360900879	-458.5033264160156	234.7232208251953	-140.3933410644531	87.46675109863281	692.1377563476562	-96.98240661621094	
169	1.68	-242.0082550048828	986.906005859375	23.39320755004883	-147.5356750488281	1000.076171875	-69.12810516357422	-191.6731719970703	1091.469848632812	-20.98163223266602	-11.46432590484619	1279.826904296875	136.6583099365234	-192.9255676269531	1217.428955078125	-25.98946380615234	-157.3751525878906	1493.369995117188	12.86147212982178	-23.02227401733398	1390.605346679688	121.8304138183594	-269.7513427734375	1368.701904296875	31.57741737365723	-123.2200317382812	1438.752075195312	-77.07122802734375	5.626415729522705	1458.728759765625	-75.65567016601562	46.66698837280273	1331.285766601562	-142.4282379150391	73.56352233886719	1111.022216796875	-156.2300109863281	-26.89395523071289	1104.070922851562	-168.9803009033203	112.9488677978516	863.503173828125	-71.79245758056641	123.1627883911133	845.8348999023438	-156.9571685791016	94.74382019042969	1024.257568359375	-151.0832214355469	122.0157852172852	784.9633178710938	-149.2254638671875	134.7102508544922	785.2489013671875	-82.42472076416016	-218.954833984375	1458.766967773438	167.6347808837891	-279.6010437011719	1396.1357421875	207.46044921875	-322.5821228027344	1108.135986328125	238.4796142578125	-340.9757690429688	1092.605834960938	178.9136657714844	-228.8146209716797	873.6246948242188	309.0075378417969	-310.3458557128906	864.25146484375	319.5985412597656	-326.3727111816406	1053.657470703125	250.3975677490234	-250.5829925537109	700.7761840820312	308.0439758300781	-234.5065155029297	779.7962036132812	334.8802185058594	-307.9244689941406	788.4124145507812	327.5369262695312	-137.6635284423828	1672.478271484375	111.6042709350586	66.5076904296875	1686.600830078125	147.9412536621094	-55.81271743774414	1681.615966796875	224.9192657470703	6.463807582855225	1675.96337890625	29.24940872192383	45.40892791748047	942.925048828125	-67.48727416992188	-239.1714172363281	912.5577392578125	194.0563812255859	-140.2780914306641	953.5308227539062	220.0484771728516	55.33816909790039	966.0504760742188	25.58464050292969	116.4577026367188	513.8177490234375	51.48406600952148	103.2056198120117	676.1666870117188	2.966189384460449	99.91110229492188	26.34941101074219	-8.985919952392578	102.539192199707	260.4851989746094	1.516664505004883	170.7489929199219	46.59481048583984	197.4213562011719	102.2424163818359	49.84308624267578	157.1836700439453	180.8645172119141	33.92345428466797	84.41873931884766	13.90663433074951	32.58903884887695	-32.01021957397461	-171.5498352050781	474.8872680664062	210.8114013671875	-196.9180145263672	763.90869140625	224.8954162597656	-449.1210632324219	201.4081268310547	-69.29039001464844	-229.0130767822266	359.1997680664062	143.2403259277344	-312.3517150878906	46.06018829345703	-11.27353191375732	-324.5445251464844	86.60182189941406	-71.78575134277344	-397.29931640625	103.0784149169922	0.8783264756202698	-440.0658264160156	239.2598724365234	-134.6281280517578	102.3037261962891	694.6402587890625	-88.15312194824219	
170	1.69	-235.2718505859375	988.2816772460938	25.85080909729004	-139.6493682861328	1001.627075195312	-65.53656005859375	-184.0918579101562	1093.136840820312	-17.9859447479248	-5.536026477813721	1281.096069335938	142.4564361572266	-184.9449157714844	1219.197509765625	-22.81909561157227	-149.1803894042969	1495.085571289062	16.8240909576416	-16.65462493896484	1391.86962890625	127.6556625366211	-262.0674743652344	1370.555053710938	33.99372482299805	-113.8974914550781	1440.469970703125	-72.54299163818359	14.99507999420166	1460.304321289062	-69.15550994873047	57.49826812744141	1333.16259765625	-135.4485931396484	86.03763580322266	1113.064208984375	-148.8950653076172	-14.1516580581665	1105.5205078125	-163.6837463378906	125.6779708862305	866.1509399414062	-63.19121932983398	137.6011810302734	848.2816162109375	-148.1670074462891	107.7250366210938	1026.489501953125	-143.2121124267578	137.0153503417969	787.4779663085938	-140.2150726318359	148.5661315917969	788.1775512695312	-73.20740509033203	-212.9595794677734	1460.40478515625	170.8030090332031	-274.2163391113281	1397.892700195312	209.8124542236328	-317.9876098632812	1109.93310546875	240.2299041748047	-335.7778625488281	1094.4052734375	180.5348205566406	-224.1268920898438	875.7423095703125	311.9396362304688	-305.8031921386719	866.0895385742188	321.6839599609375	-321.8143615722656	1055.417114257812	252.1566619873047	-245.5150604248047	702.7659912109375	310.3206481933594	-229.8048553466797	781.8154907226562	337.4125061035156	-303.2434387207031	790.192626953125	329.5064392089844	-130.6522674560547	1673.84375	115.8676452636719	73.09503936767578	1688.068725585938	154.5464324951172	-50.1678581237793	1683.263305664062	230.0955963134766	14.46957302093506	1677.078125	35.21364974975586	52.9771614074707	944.1492309570312	-62.02693557739258	-233.8351745605469	914.2288208007812	197.0203247070312	-135.6866760253906	955.4853515625	223.8298797607422	62.00933074951172	967.0443725585938	31.27675437927246	119.0480575561523	513.35986328125	53.36517333984375	107.652702331543	676.3156127929688	6.614769458770752	99.8919677734375	26.35500335693359	-8.989707946777344	103.6383361816406	260.3458862304688	2.05473518371582	170.6292724609375	46.62616348266602	197.3912658691406	102.1131896972656	49.80352020263672	157.1673736572266	180.8161315917969	33.98479843139648	84.42868804931641	13.88943099975586	32.57844161987305	-32.0963134765625	-159.124267578125	477.6777648925781	221.9535369873047	-190.1569366455078	766.235595703125	230.3904418945312	-432.2509155273438	205.4863586425781	-62.50058364868164	-215.2466430664062	362.2877807617188	153.8329772949219	-298.6460266113281	48.49261474609375	1.625856399536133	-308.6258850097656	88.87977600097656	-59.88473510742188	-383.2764282226562	107.6447525024414	10.71920967102051	-421.1885375976562	242.0606536865234	-128.3634490966797	117.2429962158203	697.1741333007812	-79.11243438720703	
171	1.7	-228.69921875	989.6385498046875	28.46748924255371	-132.0038452148438	1003.097839355469	-61.85233688354492	-176.6951599121094	1094.733520507812	-14.91861343383789	0.2221143394708633	1282.303955078125	148.2532958984375	-177.1240234375	1220.914306640625	-19.61636924743652	-141.109619140625	1496.737670898438	20.82936859130859	-10.46827983856201	1393.0634765625	133.5055999755859	-254.4853210449219	1372.347778320312	36.40335845947266	-104.7157745361328	1442.144287109375	-67.94753265380859	24.20472717285156	1461.825073242188	-62.57971572875977	68.19120025634766	1335.001586914062	-128.3428497314453	98.46832275390625	1115.093139648438	-141.3610687255859	-1.376991033554077	1106.90576171875	-158.1789855957031	138.4494171142578	868.80029296875	-54.3893928527832	152.0621948242188	850.7514038085938	-139.140869140625	120.6859130859375	1028.72802734375	-135.1317443847656	152.0382080078125	790.02294921875	-130.9669647216797	162.4413146972656	791.100830078125	-63.77132415771484	-207.1083068847656	1461.962036132812	173.9651794433594	-268.9948425292969	1399.578857421875	212.1077575683594	-313.5739135742188	1111.666381835938	241.9188232421875	-330.7715759277344	1096.1103515625	182.1220397949219	-219.3158569335938	878.022705078125	314.9665832519531	-301.0975646972656	867.9241943359375	323.8592224121094	-317.3909301757812	1057.101806640625	253.8919067382812	-239.9156036376953	704.8798828125	312.9533386230469	-224.7924194335938	784.038330078125	340.1918029785156	-298.2394714355469	791.9951782226562	331.6730346679688	-123.7142639160156	1675.15087890625	120.2441024780273	79.57244873046875	1689.371459960938	161.2594146728516	-44.59965515136719	1684.772827148438	235.3704376220703	22.35747909545898	1678.108032226562	41.29333877563477	60.23725891113281	945.203857421875	-56.67118072509766	-228.6043243408203	916.016845703125	200.2164306640625	-131.114013671875	957.4524536132812	227.6169891357422	68.50863647460938	967.951904296875	36.89664459228516	121.5054779052734	512.8987426757812	55.21244812011719	111.943244934082	676.4224853515625	10.25806999206543	99.85074615478516	26.37472152709961	-8.96414852142334	104.7051086425781	260.2088012695312	2.60577917098999	170.5668792724609	46.62719345092773	197.3631134033203	102.0197906494141	49.73178482055664	157.1807098388672	180.7910003662109	34.0161247253418	84.44167327880859	13.8730936050415	32.60132217407227	-32.14852905273438	-147.0624237060547	480.7324829101562	232.9246215820312	-183.5828399658203	768.6689453125	235.9756317138672	-414.687744140625	207.8871765136719	-55.09355926513672	-201.5229187011719	365.2982788085938	164.4632263183594	-283.2676086425781	50.80477905273438	15.20775699615479	-291.3850708007812	90.55903625488281	-47.34209823608398	-367.8448181152344	111.1464004516602	21.2616024017334	-401.9931640625	243.1133575439453	-121.5311737060547	132.22509765625	699.727783203125	-69.86422729492188	
